# xmcd
#
# Track frame offsets: 
#        150
#        13775
#        28557
#        46425
#        60270
#        76390
#        87317
#        100330
#        111227
#        122610
#        133172
#        150267
#
# Disc length: 2147 seconds
#
# Revision: 6
# Processed by: cddbd v1.5.1PL0 Copyright (c) Steve Scherf et al.
# Submitted via: ExactAudioCopy v0.95a5
#
DISCID=8f08610c
DTITLE=Nashville Bluegrass Band - Waitin' For The Hard Times To Go
DYEAR=1993
DGENRE=Bluegrass
TTITLE0=Backtrackin'
TTITLE1=Waitin' For The Hard Times To Go
TTITLE2=Kansas City Railroad Blues
TTITLE3=Open Pit Mine
TTITLE4=Train Of Yesterday
TTITLE5=Father I Stretch My Hand To Thee
TTITLE6=When I Get Where I'm Goin'
TTITLE7=Waltzin's For Dreamers
TTITLE8=I Ain't Goin' Down
TTITLE9=We Decided To Make Jesus Our Choice
TTITLE10=On Again Off Again
TTITLE11=Soppin' The Gravy
EXTD=
EXTT0=
EXTT1=
EXTT2=
EXTT3=
EXTT4=
EXTT5=
EXTT6=
EXTT7=
EXTT8=
EXTT9=
EXTT10=
EXTT11=
PLAYORDER=
